<svg xmlns="http://www.w3.org/2000/svg" xmlns:xlink="http://www.w3.org/1999/xlink" width="114.016" height="39.801" viewBox="0 0 114.016 39.801">
  <defs>
    <linearGradient id="linear-gradient" x1="0.5" x2="0.5" y2="1" gradientUnits="objectBoundingBox">
      <stop offset="0" stop-color="#f0de9f"/>
      <stop offset="1" stop-color="#786f50"/>
    </linearGradient>
  </defs>
  <g id="Group_4783" data-name="Group 4783" transform="translate(-31.984 -70)">
    <text id="HRM." transform="translate(88 97)" fill="#f0de9f" font-size="23" font-family="SegoeUI, Segoe UI" letter-spacing="0.024em"><tspan x="0" y="0">HRM.</tspan></text>
    <g id="Group_4782" data-name="Group 4782" transform="translate(31.984 70)">
      <path id="Path_38" data-name="Path 38" d="M-1525.489-777.227a2.7,2.7,0,0,1-.629,2.016,2.669,2.669,0,0,1-1.63.569c-3.062.311-7.347-1.727-9.294,1.6a15.11,15.11,0,0,0-1.53,4.847,35.306,35.306,0,0,1-1.275,5.107c-.84,2.371-2.265,5.188-5.009,5.663a7.9,7.9,0,0,1-1.88.023q-.812-.056-1.617-.177a19.745,19.745,0,0,1-3.1-.729,19.756,19.756,0,0,1-2.9-1.193,19.881,19.881,0,0,1-2.644-1.615,19.986,19.986,0,0,1-2.351-2,20.007,20.007,0,0,1-2.016-2.333,19.9,19.9,0,0,1-1.639-2.628,19.776,19.776,0,0,1-1.219-2.882,19.742,19.742,0,0,1-.757-3.092,20.018,20.018,0,0,1-.253-3.178,19.8,19.8,0,0,1,5.169-13.369,19.841,19.841,0,0,1,11.013-6.159,19.983,19.983,0,0,1,3.689-.342,19.879,19.879,0,0,1,19.124,14.455A19.872,19.872,0,0,1-1525.489-777.227Z" transform="translate(1565.23 797.098)" opacity="0.5" fill="url(#linear-gradient)"/>
      <path id="Path_39" data-name="Path 39" d="M-1525.486-776.8a2.2,2.2,0,0,1-.635,1.658c-.845.67-2.106.46-3.1.361-1.738-.173-3.443-.64-5.187-.735a5.125,5.125,0,0,0-3.533.816,5.963,5.963,0,0,0-1.748,2.915,53.2,53.2,0,0,0-1.432,7.994c-.339,2.142-.8,4.841-2.818,6.076-2.9,1.779-7.125.2-9.9-1.113a20.035,20.035,0,0,1-8.922-8.38,19.9,19.9,0,0,1-2.465-9.594,19.775,19.775,0,0,1,3.068-10.611,19.876,19.876,0,0,1,13.807-9.035,20.008,20.008,0,0,1,3-.224,19.874,19.874,0,0,1,18.374,12.295,19.858,19.858,0,0,1,1.394,5.65A13.1,13.1,0,0,1-1525.486-776.8Z" transform="translate(1565.23 796.719)" opacity="0.5" fill="url(#linear-gradient)"/>
      <path id="Path_40" data-name="Path 40" d="M-1525.489-776.8c0,1.457-1.342,1.831-2.526,1.721a29.313,29.313,0,0,1-7.046-1.834c-1.525-.533-3.539-1.21-5.075-.36-2.261,1.251-2.092,4.532-2.116,6.733-.031,2.824.564,5.92-.029,8.73-.407,1.933-1.471,3.959-3.478,4.584a4.546,4.546,0,0,1-1.351.2,5.613,5.613,0,0,1-.713-.054h0a19.89,19.89,0,0,1-16.147-12.749,19.834,19.834,0,0,1-1.256-6.968,19.793,19.793,0,0,1,1.9-8.5,19.876,19.876,0,0,1,16.937-11.344c.341-.018.683-.026,1.029-.026a19.837,19.837,0,0,1,15.82,7.845A19.779,19.779,0,0,1-1525.489-776.8Z" transform="translate(1565.23 796.719)" fill="url(#linear-gradient)"/>
    </g>
  </g>
</svg>
