<svg xmlns="http://www.w3.org/2000/svg" width="26.579" height="25.3" viewBox="0 0 26.579 25.3">
  <g id="Group_1" data-name="Group 1" transform="translate(0.141 0.132)">
    <path id="Path_1" data-name="Path 1" d="M13.148,11.96,0,23.378l1.346,1.55,1.231-1.069v10.09a3.083,3.083,0,0,0,3.079,3.079H11.4V26.97H15V37.028h5.645a3.083,3.083,0,0,0,3.079-3.079V23.859l1.231,1.069,1.346-1.55Zm8.519,21.989a1.027,1.027,0,0,1-1.026,1.026H17.048V24.917h-7.7V34.975H5.656A1.027,1.027,0,0,1,4.63,33.949V22.076l8.519-7.4,8.519,7.4Z" transform="translate(0 -11.96)" fill="#fff" stroke="#fff" stroke-width="0.2"/>
  </g>
</svg>
