<svg xmlns="http://www.w3.org/2000/svg" width="22" height="26" viewBox="0 0 22 26">
  <g id="Group_2141" data-name="Group 2141" transform="translate(-68 -626)">
    <g id="Rectangle_2354" data-name="Rectangle 2354" transform="translate(68 626)" fill="none" stroke="#fff" stroke-width="2">
      <rect width="22" height="26" rx="3" stroke="none"/>
      <rect x="1" y="1" width="20" height="24" rx="2" fill="none"/>
    </g>
    <g id="_Icons_1_Avatar" data-name="_Icons / 1 Avatar" transform="translate(73 633)">
      <path id="Combined_Shape" data-name="Combined Shape" d="M1.369,12A1.434,1.434,0,0,1,.4,11.634,1.2,1.2,0,0,1,0,10.75C0,8.125,2.573,6,5.75,6s5.75,2.125,5.75,4.75A1.314,1.314,0,0,1,10.131,12ZM3.012,2.625a2.6,2.6,0,1,1,5.193,0,2.6,2.6,0,1,1-5.193,0Z" fill="#fff"/>
    </g>
  </g>
</svg>
