<svg id="support" xmlns="http://www.w3.org/2000/svg" width="21.582" height="26.007" viewBox="0 0 21.582 26.007">
  <path id="Path_2" data-name="Path 2" d="M98.781,256h-.795A1.989,1.989,0,0,0,96,257.987v3.973a1.989,1.989,0,0,0,1.987,1.987h.795a1.194,1.194,0,0,0,1.192-1.192v-5.563A1.194,1.194,0,0,0,98.781,256Z" transform="translate(-93.616 -242.865)" fill="#fff"/>
  <path id="Path_3" data-name="Path 3" d="M49.5,288h-.312A1.192,1.192,0,0,0,48,289.192v2.384a1.192,1.192,0,0,0,1.192,1.192h.314a.1.1,0,0,0,.1-.108,2.737,2.737,0,0,1-.015-.289c0-3.63-.009-4.05.014-4.261A.1.1,0,0,0,49.5,288Z" transform="translate(-48 -273.296)" fill="#fff"/>
  <path id="Path_4" data-name="Path 4" d="M58.786,0A10.675,10.675,0,0,0,48,10.42v.308a1.2,1.2,0,0,0,.83,1.124v1.58a.1.1,0,0,0,.118.1,4.235,4.235,0,0,1,.608-.02.1.1,0,0,0,.1-.1V11.92h.415a1.219,1.219,0,0,0,1.245-1.192V10.4a7.477,7.477,0,0,1,14.942-.069v.4a1.219,1.219,0,0,0,1.245,1.192h.415v1.49a.1.1,0,0,0,.1.1,4.294,4.294,0,0,1,.608.021.1.1,0,0,0,.118-.1v-1.58a1.2,1.2,0,0,0,.83-1.124v-.4A10.581,10.581,0,0,0,58.786,0Z" transform="translate(-48 0)" fill="#fff"/>
  <path id="Path_5" data-name="Path 5" d="M337.192,263.947h.795a1.989,1.989,0,0,0,1.987-1.987v-3.973A1.989,1.989,0,0,0,337.987,256h-.795A1.194,1.194,0,0,0,336,257.192v5.563A1.194,1.194,0,0,0,337.192,263.947Z" transform="translate(-320.775 -242.865)" fill="#fff"/>
  <path id="Path_6" data-name="Path 6" d="M432.1,288h-.314a.1.1,0,0,0-.1.108,2.738,2.738,0,0,1,.015.289c0,3.63.009,4.05-.014,4.261a.1.1,0,0,0,.1.11h.312a1.192,1.192,0,0,0,1.192-1.192v-2.384A1.192,1.192,0,0,0,432.1,288Z" transform="translate(-411.709 -273.296)" fill="#fff"/>
  <path id="Path_7" data-name="Path 7" d="M295.153,399.7v.894a2.583,2.583,0,0,1-2.583,2.583h-1.441a1.589,1.589,0,1,0,0,.795h1.441a3.377,3.377,0,0,0,3.377-3.377v-.915a.1.1,0,0,0-.113-.1,3.882,3.882,0,0,1-.582.02A.1.1,0,0,0,295.153,399.7Z" transform="translate(-275.16 -379.152)" fill="#fff"/>
</svg>
