<svg xmlns="http://www.w3.org/2000/svg" width="24.27" height="24.27" viewBox="0 0 24.27 24.27">
  <g id="gear" transform="translate(0.1 0.1)">
    <path id="Path_8" data-name="Path 8" d="M139.056,133.609a5.447,5.447,0,1,0,5.447,5.447A5.454,5.454,0,0,0,139.056,133.609Zm0,9.533a4.086,4.086,0,1,1,4.086-4.086A4.09,4.09,0,0,1,139.056,143.142Zm0,0" transform="translate(-127.022 -127.022)" fill="#fff" stroke="#fff" stroke-width="0.2"/>
    <path id="Path_9" data-name="Path 9" d="M23.5,9.294l-1.85-.4a10.068,10.068,0,0,0-.6-1.436l1.024-1.593a.719.719,0,0,0-.1-.9L19.1,2.084a.719.719,0,0,0-.9-.1L16.613,3.011a10.068,10.068,0,0,0-1.436-.6l-.4-1.85a.719.719,0,0,0-.7-.566H10a.719.719,0,0,0-.7.566l-.4,1.85a10.068,10.068,0,0,0-1.436.6L5.863,1.987a.719.719,0,0,0-.9.1L2.084,4.966a.719.719,0,0,0-.1.9L3.012,7.456a10.068,10.068,0,0,0-.6,1.436l-1.85.4A.719.719,0,0,0,0,10v4.076a.719.719,0,0,0,.566.7l1.85.4a10.068,10.068,0,0,0,.6,1.436L1.987,18.206a.719.719,0,0,0,.1.9l2.882,2.882a.719.719,0,0,0,.9.1l1.593-1.024a10.068,10.068,0,0,0,1.436.6l.4,1.85a.719.719,0,0,0,.7.566h4.076a.719.719,0,0,0,.7-.566l.4-1.85a10.067,10.067,0,0,0,1.436-.6l1.593,1.024a.719.719,0,0,0,.9-.1L21.986,19.1a.719.719,0,0,0,.1-.9l-1.024-1.593a10.068,10.068,0,0,0,.6-1.436l1.85-.4a.719.719,0,0,0,.566-.7V10A.719.719,0,0,0,23.5,9.294Zm-.872,4.2-1.7.369a.72.72,0,0,0-.54.51,8.629,8.629,0,0,1-.8,1.922.719.719,0,0,0,.021.742l.939,1.461L18.5,20.558l-1.461-.939a.719.719,0,0,0-.742-.021,8.634,8.634,0,0,1-1.922.8.72.72,0,0,0-.51.54l-.369,1.7H10.577l-.369-1.7a.72.72,0,0,0-.51-.54,8.629,8.629,0,0,1-1.922-.8.719.719,0,0,0-.742.021l-1.461.939L3.511,18.5l.939-1.461a.719.719,0,0,0,.021-.742,8.639,8.639,0,0,1-.8-1.922.719.719,0,0,0-.54-.51l-1.7-.369V10.577l1.7-.369a.72.72,0,0,0,.54-.51,8.629,8.629,0,0,1,.8-1.922.719.719,0,0,0-.021-.742L3.511,5.573,5.573,3.511l1.461.939a.719.719,0,0,0,.742.021,8.634,8.634,0,0,1,1.922-.8.72.72,0,0,0,.51-.54l.369-1.7h2.916l.369,1.7a.72.72,0,0,0,.51.54,8.63,8.63,0,0,1,1.922.8.719.719,0,0,0,.742-.021L18.5,3.511l2.062,2.062-.939,1.461a.719.719,0,0,0-.021.742,8.63,8.63,0,0,1,.8,1.922.719.719,0,0,0,.54.51l1.7.369Zm0,0" transform="translate(0 0)" fill="#fff" stroke="#fff" stroke-width="0.2"/>
  </g>
</svg>
