<svg xmlns="http://www.w3.org/2000/svg" width="24" height="24" viewBox="0 0 24 24">
  <path id="_8_Scale" data-name="8 Scale" d="M10.285,24H2.857A2.86,2.86,0,0,1,0,21.143V13.714a2.86,2.86,0,0,1,2.857-2.857H4V3.428A3.432,3.432,0,0,1,7.428,0H20.572A3.432,3.432,0,0,1,24,3.428V16.571A3.433,3.433,0,0,1,20.572,20H13.142v1.143a2.872,2.872,0,0,1-.836,2.02A2.839,2.839,0,0,1,10.285,24ZM6.6,1.958a.645.645,0,0,0-.644.644v8.363h3.86a3.2,3.2,0,0,1,2.275.943,3.239,3.239,0,0,1,.942,2.275v3.859H21.4a.644.644,0,0,0,.643-.643V2.6a.644.644,0,0,0-.643-.644Z" fill="#fff"/>
</svg>
