<svg xmlns="http://www.w3.org/2000/svg" width="22.643" height="29.539" viewBox="0 0 22.643 29.539">
  <path id="Combined_Shape" data-name="Combined Shape" d="M8.326,27.827a1.159,1.159,0,0,1,.991-1.738h4.01a1.159,1.159,0,0,1,.991,1.738,3.477,3.477,0,0,1-5.992,0ZM20.9,24.35H1.738A1.738,1.738,0,0,1,.271,21.679l1.559-2.456a1.735,1.735,0,0,0,.266-.817l.58-8.541A8.693,8.693,0,0,1,9.629,1.908,1.647,1.647,0,0,1,9.7,1.62c.339-1,.958-1.62,1.626-1.62s1.287.616,1.627,1.62a1.646,1.646,0,0,1,.068.3,8.821,8.821,0,0,1,6.968,8.165l.544,8.3a1.737,1.737,0,0,0,.266.817l1.577,2.474a1.738,1.738,0,0,1-1.466,2.671Z" transform="translate(0)" fill="#ff1e1e"/>
</svg>
