<svg xmlns="http://www.w3.org/2000/svg" xmlns:xlink="http://www.w3.org/1999/xlink" width="33" height="33" viewBox="0 0 33 33">
  <defs>
    <filter id="Rectangle_71" x="0" y="0" width="33" height="33" filterUnits="userSpaceOnUse">
      <feOffset dx="1" dy="1" input="SourceAlpha"/>
      <feGaussianBlur stdDeviation="1" result="blur"/>
      <feFlood flood-opacity="0.078"/>
      <feComposite operator="in" in2="blur"/>
      <feComposite in="SourceGraphic"/>
    </filter>
  </defs>
  <g id="Group_9" data-name="Group 9" transform="translate(1.446 1.725)">
    <g transform="matrix(1, 0, 0, 1, -1.45, -1.72)" filter="url(#Rectangle_71)">
      <g id="Rectangle_71-2" data-name="Rectangle 71" transform="translate(2 2)" fill="#fff" stroke="#50a0fc" stroke-width="1">
        <rect width="27" height="27" rx="5" stroke="none"/>
        <rect x="0.5" y="0.5" width="26" height="26" rx="4.5" fill="none"/>
      </g>
    </g>
    <g id="draw" transform="translate(7.144 7.084)">
      <path id="Path_11" data-name="Path 11" d="M8.006,3.427l2.619,2.619L4,12.675,1.378,10.056ZM12.612,2.8,11.444,1.627a1.159,1.159,0,0,0-1.637,0L8.688,2.746l2.619,2.619,1.3-1.3A.893.893,0,0,0,12.612,2.8ZM.008,13.737a.3.3,0,0,0,.361.355l2.918-.708L.669,10.765Z" transform="translate(-0.001 -1.289)" fill="#1894ff"/>
    </g>
  </g>
</svg>
