<svg xmlns="http://www.w3.org/2000/svg" xmlns:xlink="http://www.w3.org/1999/xlink" width="22" height="18" viewBox="0 0 22 18">
  <defs>
    <clipPath id="clip-path">
      <rect width="22" height="18" fill="none"/>
    </clipPath>
  </defs>
  <g id="_Icons_28_Warning" data-name="_Icons / 28 Warning" clip-path="url(#clip-path)">
    <path id="_28_Warning" data-name="28 Warning" d="M19.686,18H2.309A2.317,2.317,0,0,1,.376,14.418L9.071,1.053a2.31,2.31,0,0,1,3.876,0l8.677,13.365A2.316,2.316,0,0,1,19.686,18Zm-8.7-5.1a.927.927,0,0,0,0,1.854H11a.927.927,0,0,0-.014-1.854Zm0-8.342a.927.927,0,0,0-.925.927v5.1a.925.925,0,1,0,1.85,0v-5.1A.927.927,0,0,0,10.986,4.561Z" transform="translate(0 0)" fill="#f22"/>
  </g>
</svg>
