<svg xmlns="http://www.w3.org/2000/svg" width="19.535" height="19.535" viewBox="0 0 19.535 19.535">
  <path id="Combined_Shape" data-name="Combined Shape" d="M2.326,19.535A2.326,2.326,0,0,1,0,17.21V10.233A2.326,2.326,0,0,1,2.326,7.907H4.363A1.369,1.369,0,0,1,5.7,8.912a4.186,4.186,0,0,0,8.131,0,1.367,1.367,0,0,1,1.339-1.005H16.88a2.419,2.419,0,0,1,2.655,2.326V17.21a2.325,2.325,0,0,1-2.326,2.326ZM8.837,9.768a.93.93,0,0,1-.93-.931V5.34H6.284a.931.931,0,0,1-.656-1.591L9.112.271a.929.929,0,0,1,1.311,0l3.484,3.479a.93.93,0,0,1-.655,1.591H11.628v3.5a.931.931,0,0,1-.931.931Z" fill="#1894ff"/>
</svg>
